<?xml version="1.0" standalone="no"?>
<!DOCTYPE svg PUBLIC "-//W3C//DTD SVG 20010904//EN"
 "http://www.w3.org/TR/2001/REC-SVG-20010904/DTD/svg10.dtd">
<svg version="1.0" xmlns="http://www.w3.org/2000/svg"
 width="339.000000pt" height="324.000000pt" viewBox="0 0 339.000000 324.000000"
 preserveAspectRatio="xMidYMid meet">

<g transform="translate(0.000000,324.000000) scale(0.100000,-0.100000)"
fill="#000000" stroke="none">
<path d="M0 1620 l0 -1620 1695 0 1695 0 0 1620 0 1620 -1695 0 -1695 0 0
-1620z m2413 1432 c15 -14 27 -36 27 -47 0 -13 -31 -57 -75 -108 -41 -47 -75
-88 -75 -92 0 -3 38 28 85 70 96 85 121 92 167 48 43 -41 38 -74 -24 -141
-140 -153 -140 -153 4 -29 43 37 87 67 99 67 25 0 89 -61 89 -84 0 -9 -15 -33
-33 -53 -19 -21 -95 -108 -170 -193 -76 -85 -152 -165 -169 -177 -28 -21 -42
-23 -152 -23 l-121 0 -92 -97 c-51 -54 -93 -101 -93 -104 0 -4 156 -150 347
-326 192 -175 358 -329 370 -342 16 -16 23 -36 23 -64 0 -35 -7 -47 -72 -114
-40 -41 -84 -79 -97 -84 -54 -21 -76 -2 -417 371 -181 198 -332 360 -335 360
-3 0 -151 -159 -328 -353 -177 -193 -336 -360 -354 -370 -47 -26 -73 -15 -159
70 -81 81 -96 110 -78 153 6 14 175 176 375 360 201 184 365 336 365 338 0 2
-30 36 -66 76 l-66 71 -94 6 c-81 5 -103 10 -169 43 -136 67 -260 207 -306
344 -16 49 -20 82 -18 147 4 75 7 87 35 122 63 79 177 104 305 67 217 -64 407
-304 397 -502 l-3 -64 82 -75 83 -75 99 91 98 91 7 127 c4 74 13 137 21 153
12 23 284 273 384 353 39 31 61 29 104 -11z m-495 -38 c95 -19 182 -53 196
-76 8 -14 7 -22 -6 -34 -16 -16 -21 -15 -75 5 -92 34 -190 51 -298 51 -117 0
-199 -16 -313 -60 -66 -25 -86 -29 -97 -20 -23 19 -18 39 18 60 38 24 163 66
232 79 82 15 259 12 343 -5z m-43 -424 c9 -7 15 -23 13 -34 -3 -20 -8 -21
-108 -18 -73 2 -120 -1 -153 -12 -58 -17 -77 -12 -77 20 0 44 74 65 212 60 62
-2 103 -8 113 -16z m715 -142 c34 -79 60 -221 60 -328 0 -167 -45 -327 -131
-473 -32 -54 -45 -68 -61 -65 -41 6 -42 29 -4 92 136 226 164 499 75 739 -17
46 -19 60 -9 72 24 29 47 17 70 -37z m-1661 -32 c9 -10 6 -34 -9 -97 -44 -185
-20 -401 64 -574 46 -94 46 -119 2 -113 -27 4 -107 161 -133 262 -26 102 -26
366 0 451 26 84 48 105 76 71z m1281 -167 c18 -33 24 -152 11 -220 -17 -87
-50 -153 -79 -157 -35 -5 -37 21 -8 108 27 82 33 163 17 230 -4 19 -6 41 -4
48 7 20 51 14 63 -9z m-890 -118 c0 -42 7 -101 16 -131 14 -46 14 -54 1 -67
-23 -23 -52 -7 -66 35 -7 20 -15 80 -18 133 -5 81 -3 98 11 112 13 13 22 15
37 7 16 -9 19 -22 19 -89z m308 -417 c41 -12 80 -15 144 -12 81 5 90 4 99 -14
9 -16 7 -24 -5 -37 -14 -13 -38 -16 -129 -15 -156 1 -227 31 -187 79 15 18 10
18 78 -1z m-286 -338 c113 -61 216 -88 363 -93 151 -6 230 7 359 60 88 36 116
35 116 -3 0 -25 -69 -60 -187 -97 -81 -25 -102 -27 -258 -27 -160 0 -175 1
-255 28 -127 42 -240 102 -240 127 0 8 28 39 35 39 3 0 33 -15 67 -34z m204
-331 c42 -17 64 -64 63 -132 -1 -71 -11 -95 -48 -120 -45 -30 -141 -32 -188
-3 -49 29 -67 120 -40 200 21 63 128 91 213 55z m-476 -130 l0 -136 -142 3
-143 3 -3 133 -3 132 146 0 145 0 0 -135z m130 85 l0 -50 35 0 c33 0 35 -2 35
-35 0 -33 -2 -35 -35 -35 l-35 0 0 -60 0 -60 -45 0 -45 0 0 145 0 145 45 0 45
0 0 -50z m570 -91 l0 -140 -42 3 -43 3 -3 138 -3 137 46 0 45 0 0 -141z m389
104 c29 -23 56 -65 65 -105 6 -27 5 -28 -38 -28 -41 0 -45 2 -51 30 -9 40 -40
60 -93 60 -81 0 -110 -62 -100 -209 6 -82 27 -118 74 -127 44 -8 92 1 116 23
31 28 22 43 -27 43 -45 0 -45 0 -45 35 l0 35 85 0 85 0 0 -105 0 -105 -40 0
c-30 0 -40 4 -40 16 0 11 -5 14 -17 9 -91 -37 -161 -29 -214 24 -20 20 -42 54
-48 76 -14 53 -14 188 1 238 14 47 58 93 101 107 50 15 155 5 186 -17z m447
-10 c54 -38 69 -84 69 -203 0 -115 -16 -165 -66 -203 -57 -42 -162 -43 -221
-3 -54 36 -72 79 -76 182 -6 131 21 203 90 238 49 25 163 18 204 -11z m-1526
-261 c0 -5 -11 -19 -25 -32 -32 -30 -32 -42 0 -34 20 5 38 -5 100 -57 41 -35
75 -67 75 -71 0 -4 -24 -8 -53 -8 -49 0 -57 4 -112 50 -33 28 -62 50 -65 50
-3 0 -24 -23 -48 -50 -40 -46 -47 -50 -88 -50 -24 0 -44 4 -44 8 0 4 36 51 81
105 l81 97 49 0 c27 0 49 -4 49 -8z m450 2 c0 -4 -10 -23 -22 -42 -21 -35 -21
-35 -1 -30 15 4 25 -2 38 -25 l18 -30 36 67 c36 65 36 66 79 66 23 0 42 -3 42
-7 0 -5 -9 -23 -21 -42 -20 -34 -20 -34 0 -28 16 4 28 -8 61 -57 22 -34 40
-65 40 -69 0 -4 -18 -7 -40 -7 -36 0 -43 5 -68 40 -15 21 -30 39 -34 40 -4 0
-17 -18 -29 -40 -21 -37 -26 -40 -65 -40 -37 0 -44 4 -68 40 -14 22 -28 40
-31 40 -3 0 -16 -18 -30 -40 -23 -36 -29 -40 -65 -40 -22 0 -40 3 -40 6 0 3
26 50 58 105 l57 99 43 0 c23 0 42 -3 42 -6z m-840 -416 c-1 -35 -1 -68 -1
-73 1 -6 17 -19 36 -29 19 -11 35 -23 35 -28 0 -15 -55 -8 -84 11 -28 19 -29
19 -60 0 -33 -20 -46 -23 -46 -11 0 4 15 16 34 26 54 29 54 46 1 46 l-45 0 0
60 0 60 66 0 65 0 -1 -62z m69 37 c2 -11 8 -23 15 -27 8 -6 8 -10 -1 -16 -6
-4 -13 -21 -15 -37 -2 -24 -8 -31 -30 -33 l-28 -3 0 71 0 71 27 -3 c18 -2 29
-10 32 -23z m161 15 c0 -5 -9 -10 -20 -10 -24 0 -26 -19 -5 -46 8 -10 15 -25
15 -31 0 -23 -38 -14 -57 13 l-19 26 -17 -26 c-17 -25 -17 -26 3 -26 11 0 20
-7 20 -15 0 -11 12 -15 45 -15 l45 0 0 70 c0 68 1 70 25 70 l25 0 0 -101 0
-101 -31 6 c-17 3 -60 6 -95 6 l-64 0 0 53 c1 30 7 60 15 71 21 27 19 46 -5
46 -11 0 -20 5 -20 10 0 6 30 10 70 10 40 0 70 -4 70 -10z m285 0 c4 -6 -5
-10 -19 -10 -31 0 -31 -1 -6 -50 25 -49 25 -50 -5 -50 -16 0 -29 9 -39 27
l-14 28 -13 -28 c-7 -15 -18 -27 -26 -27 -10 0 -9 9 7 40 25 49 25 60 0 60
-11 0 -20 5 -20 10 0 6 28 10 64 10 36 0 68 -4 71 -10z m65 -50 c0 -57 -1 -60
-25 -60 -21 0 -25 5 -25 29 0 23 -5 31 -22 34 l-23 4 23 8 c12 4 22 16 22 26
0 14 7 19 25 19 24 0 25 -3 25 -60z m88 33 c3 -19 10 -23 37 -23 27 0 34 4 37
23 2 16 11 23 31 25 l27 3 0 -67 0 -67 -36 6 c-32 5 -35 4 -32 -16 2 -18 11
-23 41 -25 20 -2 37 -7 37 -13 0 -5 -46 -9 -105 -9 -63 0 -105 4 -105 10 0 6
18 10 40 10 36 0 40 3 40 24 0 21 -4 24 -32 22 l-33 -1 -3 63 -3 63 28 -3 c20
-2 29 -9 31 -25z m352 8 c0 -11 -4 -31 -10 -45 -7 -20 -6 -26 5 -26 7 0 17 -4
20 -10 4 -6 -33 -10 -104 -10 -67 0 -111 4 -111 10 0 6 14 10 30 10 25 0 30 4
30 25 0 20 5 25 25 25 20 0 25 -5 25 -25 0 -16 6 -25 15 -25 8 0 15 9 15 19 0
11 3 26 6 35 5 14 -4 16 -60 16 -37 0 -66 4 -66 10 0 6 37 10 90 10 82 0 90
-2 90 -19z m208 7 c7 -7 12 -27 12 -45 0 -41 -21 -53 -94 -53 -43 0 -61 5 -76
20 -24 24 -25 38 -4 68 13 19 24 22 83 22 39 0 72 -5 79 -12z m232 -28 c0 -22
5 -40 10 -40 6 0 10 18 10 40 0 36 2 40 25 40 l26 0 -3 -97 c-3 -93 -4 -98
-25 -101 -21 -3 -23 0 -23 47 0 43 -3 51 -18 51 -11 0 -27 -16 -40 -39 -27
-48 -47 -65 -67 -57 -14 5 -12 12 10 49 14 24 25 47 25 50 0 4 -14 7 -31 7
-17 0 -28 4 -24 10 3 6 22 10 41 10 30 0 34 3 34 25 0 23 -4 25 -40 25 -22 0
-40 5 -40 10 0 6 28 10 65 10 l65 0 0 -40z m288 -12 l-3 -53 -90 2 -90 2 -3
50 -3 51 96 0 96 0 -3 -52z m82 -34 l0 -86 40 7 c24 4 40 3 40 -3 0 -11 -48
-22 -96 -22 l-34 0 0 95 c0 95 0 95 25 95 25 0 25 -1 25 -86z m140 -15 c0 -98
0 -100 -22 -97 -22 3 -23 8 -26 101 l-3 97 26 0 25 0 0 -101z m150 91 c0 -5
-16 -10 -35 -10 -32 0 -35 -2 -35 -30 0 -28 3 -30 35 -30 19 0 35 -4 35 -10 0
-5 -16 -10 -35 -10 -33 0 -35 -2 -35 -36 l0 -36 40 7 c24 4 40 3 40 -3 0 -11
-48 -22 -96 -22 l-34 0 0 95 0 95 60 0 c33 0 60 -4 60 -10z m70 -91 c0 -98 0
-100 -22 -97 -22 3 -23 8 -26 101 l-3 97 26 0 25 0 0 -101z m-1177 -40 c6 -9
7 -24 4 -33 -5 -13 -21 -16 -85 -16 -89 0 -112 12 -92 50 10 19 19 21 87 18
57 -2 78 -7 86 -19z m237 11 c0 -5 -6 -10 -14 -10 -9 0 -16 -12 -18 -27 -2
-20 -9 -29 -25 -31 -20 -3 -23 1 -23 27 0 24 -4 31 -19 31 -14 0 -21 -8 -23
-27 -2 -20 -9 -28 -23 -28 -14 0 -21 8 -23 28 -2 19 -9 27 -23 27 -10 0 -19 5
-19 10 0 6 42 10 105 10 63 0 105 -4 105 -10z m510 0 c0 -5 -6 -10 -14 -10 -9
0 -16 -12 -18 -27 -2 -22 -8 -28 -28 -28 -20 0 -26 6 -28 28 -2 15 -9 27 -17
27 -8 0 -15 -12 -17 -27 -2 -20 -9 -29 -25 -31 -20 -3 -23 1 -23 27 0 24 -4
31 -20 31 -11 0 -20 5 -20 10 0 6 42 10 105 10 63 0 105 -4 105 -10z m-1185
-30 c0 -25 -1 -25 -91 -28 -78 -2 -93 0 -98 14 -13 35 12 45 103 42 84 -3 86
-3 86 -28z"/>
<path d="M2173 2851 c-105 -94 -193 -180 -197 -193 -3 -13 -6 -75 -6 -139 l0
-116 -109 -101 -109 -100 35 -34 34 -33 102 107 102 107 137 6 136 7 149 166
c246 276 248 284 28 91 -83 -72 -158 -135 -167 -140 -22 -12 -78 34 -78 64 0
14 51 79 136 175 75 84 133 156 130 159 -3 4 -16 -3 -29 -14 -12 -11 -81 -72
-153 -136 -73 -64 -140 -117 -151 -117 -25 0 -63 40 -63 67 0 13 54 83 136
178 75 86 134 158 132 161 -3 2 -91 -72 -195 -165z"/>
<path d="M945 2901 c-131 -58 -93 -293 74 -454 113 -110 227 -153 346 -133
l40 7 504 -551 c276 -302 506 -550 510 -550 16 0 133 129 129 143 -1 8 -246
238 -543 510 l-540 495 0 94 c0 88 -2 98 -37 170 -47 95 -145 190 -244 239
-57 28 -82 34 -144 36 -41 2 -84 -1 -95 -6z m8 -61 c-11 -113 -32 -153 -60
-115 -16 23 -11 71 13 118 19 35 50 33 47 -3z m22 -219 c39 -77 127 -166 201
-202 75 -37 82 -45 60 -67 -15 -16 -21 -14 -83 18 -80 41 -168 125 -211 200
-37 65 -41 100 -12 100 14 0 27 -15 45 -49z m1479 -1227 c19 -18 20 -28 6 -55
-20 -37 -80 -18 -80 26 0 42 44 59 74 29z"/>
<path d="M1205 1701 c-198 -181 -361 -333 -363 -339 -4 -12 119 -142 133 -142
8 0 478 505 638 686 l38 43 -37 41 c-20 22 -39 40 -43 40 -4 0 -169 -148 -366
-329z m-190 -315 c13 -19 14 -29 5 -45 -20 -39 -80 -21 -80 24 0 47 49 60 75
21z"/>
<path d="M1422 978 c-16 -16 -16 -110 0 -126 13 -13 56 -16 82 -6 20 8 23 113
4 132 -16 16 -70 16 -86 0z"/>
<path d="M870 920 l0 -70 55 0 55 0 0 70 0 70 -55 0 -55 0 0 -70z"/>
<path d="M2453 960 c-34 -14 -54 -54 -60 -119 -8 -90 4 -149 37 -183 54 -53
138 -27 160 50 22 81 7 203 -29 236 -23 21 -78 29 -108 16z"/>
<path d="M620 329 c0 -24 4 -38 10 -34 6 3 10 22 10 41 0 19 -4 34 -10 34 -5
0 -10 -18 -10 -41z"/>
<path d="M863 223 c15 -2 37 -2 50 0 12 2 0 4 -28 4 -27 0 -38 -2 -22 -4z"/>
<path d="M1360 305 c0 -10 11 -15 35 -15 24 0 35 5 35 15 0 10 -11 15 -35 15
-24 0 -35 -5 -35 -15z"/>
<path d="M1807 364 c-13 -13 -7 -55 8 -60 8 -4 27 -3 41 0 20 5 25 12 22 34
-2 22 -9 28 -33 30 -17 2 -34 0 -38 -4z"/>
<path d="M2310 340 c0 -28 3 -30 35 -30 32 0 35 2 35 30 0 28 -3 30 -35 30
-32 0 -35 -2 -35 -30z"/>
<path d="M1582 233 c4 -20 45 -28 67 -14 22 14 3 31 -35 31 -28 0 -35 -4 -32
-17z"/>
<path d="M1132 228 c6 -16 32 -22 64 -14 40 10 27 26 -22 26 -32 0 -44 -4 -42
-12z"/>
</g>
</svg>
